<svg width="1362" height="783" viewBox="0 0 1362 783" fill="none" xmlns="http://www.w3.org/2000/svg">
<path d="M1038.4 733.735L1027.12 740.22L1033.1 739.099L1040.96 737.276L1048.69 736.253L1053.8 736.231C1055.79 736.222 1057.77 736.482 1059.69 737.004C1061.25 737.425 1062.76 738.021 1064.18 738.768C1066.62 740.044 1068.81 741.764 1070.62 743.827L1071.61 744.948L1071.93 745.298C1075.1 748.791 1077.84 752.66 1080.07 756.819L1083.08 761.841L1081.91 756.128C1081.19 751.39 1080.84 746.603 1080.88 741.812L1080.88 741.467L1080.97 739.022C1081.06 736.353 1081.64 733.724 1082.68 731.262C1083.14 730.171 1083.68 729.119 1084.31 728.116L1084.62 727.621C1086.44 724.715 1088.76 722.152 1091.47 720.048L1092.99 718.86L1097.49 716.043L1104.23 712.382L1111.35 708.581L1105.73 709.56L1097.5 711.524L1089.27 712.359L1085.23 712.478C1082.87 712.547 1080.51 712.242 1078.25 711.573C1076.06 710.925 1073.97 709.943 1072.08 708.662L1071.81 708.481C1070.09 707.316 1068.52 705.936 1067.15 704.374L1064.74 701.637L1061.01 696.265L1058.78 692.591L1054.93 686.89L1056.89 697.812L1057.59 706.198C1057.69 707.415 1057.69 708.638 1057.58 709.855C1057.27 713.502 1056.03 717.009 1053.98 720.046L1053.4 720.908C1052.04 722.94 1050.39 724.766 1048.5 726.33L1045.62 728.719C1043.36 730.593 1040.94 732.272 1038.4 733.735Z" fill="#E6C157"/>
<path d="M1255.4 338.735L1244.12 345.22L1250.1 344.099L1257.96 342.276L1265.69 341.253L1270.8 341.231C1272.79 341.222 1274.77 341.482 1276.69 342.004C1278.25 342.426 1279.76 343.021 1281.18 343.768C1283.62 345.044 1285.81 346.765 1287.62 348.827L1288.61 349.948L1288.93 350.298C1292.1 353.791 1294.84 357.66 1297.07 361.819L1300.08 366.841L1298.91 361.128C1298.19 356.39 1297.84 351.603 1297.88 346.812L1297.88 346.467L1297.97 344.022C1298.06 341.353 1298.64 338.724 1299.68 336.262C1300.14 335.171 1300.68 334.119 1301.31 333.116L1301.62 332.621C1303.44 329.715 1305.76 327.152 1308.47 325.048L1309.99 323.86L1314.49 321.043L1321.23 317.382L1328.35 313.581L1322.73 314.561L1314.5 316.525L1306.27 317.359L1302.23 317.478C1299.87 317.547 1297.51 317.242 1295.25 316.573C1293.06 315.925 1290.97 314.943 1289.08 313.662L1288.81 313.481C1287.09 312.316 1285.52 310.936 1284.15 309.374L1281.74 306.637L1278.01 301.265L1275.78 297.591L1271.93 291.89L1273.89 302.812L1274.59 311.198C1274.69 312.415 1274.69 313.638 1274.58 314.855C1274.27 318.502 1273.03 322.009 1270.98 325.046L1270.4 325.908C1269.04 327.94 1267.39 329.767 1265.5 331.33L1262.62 333.719C1260.36 335.593 1257.94 337.272 1255.4 338.735Z" fill="#E6C157"/>
<path d="M509.397 243.735L498.116 250.22L504.103 249.099L511.962 247.276L519.694 246.253L524.798 246.231C526.788 246.222 528.771 246.482 530.692 247.004C532.246 247.426 533.758 248.021 535.184 248.768C537.617 250.044 539.811 251.765 541.625 253.827L542.61 254.948L542.928 255.298C546.102 258.791 548.836 262.66 551.067 266.819L554.081 271.841L552.906 266.128C552.187 261.39 551.842 256.603 551.875 251.812L551.877 251.467L551.965 249.022C552.061 246.353 552.641 243.724 553.678 241.262C554.137 240.171 554.684 239.119 555.312 238.116L555.622 237.621C557.442 234.715 559.759 232.152 562.466 230.048L563.995 228.86L568.49 226.043L575.231 222.382L582.347 218.581L576.734 219.561L568.501 221.525L560.271 222.359L556.227 222.478C553.868 222.547 551.513 222.242 549.25 221.573C547.056 220.925 544.974 219.943 543.079 218.662L542.81 218.481C541.087 217.316 539.519 215.936 538.145 214.374L535.739 211.637L532.013 206.265L529.778 202.591L525.928 196.89L527.895 207.812L528.59 216.198C528.691 217.415 528.688 218.638 528.583 219.855C528.266 223.502 527.027 227.009 524.984 230.046L524.405 230.908C523.037 232.94 521.386 234.767 519.5 236.33L516.62 238.719C514.36 240.593 511.943 242.272 509.397 243.735Z" fill="#E6C157"/>
<path d="M1132.9 175.112L1120.03 173.16L1125.42 176.012L1132.7 179.479L1139.39 183.493L1143.39 186.655C1144.96 187.888 1146.35 189.326 1147.53 190.93C1148.48 192.228 1149.29 193.635 1149.94 195.108C1151.05 197.621 1151.7 200.334 1151.83 203.078L1151.9 204.568L1151.93 205.04C1152.24 209.75 1151.97 214.479 1151.13 219.122L1150.36 224.929L1153 219.727C1155.38 215.572 1158.1 211.612 1161.11 207.884L1161.32 207.616L1162.91 205.757C1164.65 203.728 1166.74 202.033 1169.09 200.752C1170.12 200.184 1171.21 199.702 1172.32 199.308L1172.87 199.114C1176.11 197.974 1179.52 197.411 1182.95 197.45L1184.88 197.473L1190.15 198.068L1197.71 199.402L1205.64 200.859L1200.64 198.13L1192.98 194.54L1186.02 190.068L1182.78 187.642C1180.89 186.227 1179.24 184.522 1177.88 182.589C1176.57 180.716 1175.55 178.652 1174.87 176.469L1174.77 176.16C1174.15 174.175 1173.78 172.119 1173.68 170.041L1173.5 166.401L1173.93 159.878L1174.47 155.611L1175.01 148.753L1169.74 158.524L1165.06 165.518C1164.39 166.533 1163.62 167.489 1162.78 168.375C1160.26 171.031 1157.11 173.004 1153.62 174.108L1152.63 174.421C1150.29 175.16 1147.86 175.56 1145.42 175.609L1141.67 175.685C1138.74 175.744 1135.8 175.552 1132.9 175.112Z" fill="#E6C157"/>
<path d="M713.22 39.0364L701.232 33.9796L705.747 38.0679L711.954 43.221L717.447 48.7573L720.553 52.8077C721.765 54.3872 722.757 56.1229 723.505 57.9677C724.109 59.46 724.551 61.0245 724.819 62.6122C725.275 65.3208 725.233 68.1087 724.688 70.8009L724.392 72.2639L724.306 72.7289C723.446 77.3693 722.02 81.8866 720.059 86.1796L717.885 91.6185L721.722 87.2259C725.058 83.7861 728.661 80.6149 732.496 77.7418L732.771 77.5353L734.771 76.1254C736.954 74.5866 739.398 73.4575 741.985 72.7931C743.132 72.4986 744.3 72.297 745.479 72.1902L746.061 72.1376C749.476 71.8283 752.918 72.1214 756.232 73.0036L758.102 73.5017L763.065 75.3757L770.059 78.5275L777.391 81.8922L773.215 78.0168L766.669 72.6507L761.025 66.6034L758.482 63.4554C757 61.6194 755.818 59.5598 754.981 57.3535C754.169 55.2145 753.691 52.9634 753.564 50.6792L753.546 50.3559C753.43 48.2788 753.58 46.1954 753.993 44.1564L754.716 40.5845L756.737 34.3676L758.31 30.3649L760.519 23.8498L753.014 32.0252L746.758 37.6533C745.85 38.4699 744.875 39.2081 743.842 39.8601C740.747 41.8147 737.206 42.951 733.551 43.1623L732.515 43.2222C730.069 43.3636 727.616 43.1537 725.23 42.5988L721.586 41.7513C718.725 41.0861 715.926 40.1778 713.22 39.0364Z" fill="#E6C157"/>
<path d="M141.229 233.743L128.28 232.47L133.804 235.035L141.26 238.116L148.149 241.774L152.316 244.721C153.941 245.87 155.404 247.233 156.665 248.773C157.685 250.019 158.571 251.382 159.297 252.819C160.536 255.27 161.323 257.945 161.601 260.678L161.752 262.163L161.808 262.633C162.362 267.319 162.34 272.056 161.741 276.738L161.278 282.577L163.64 277.244C165.806 272.969 168.305 268.872 171.116 264.991L171.317 264.712L172.809 262.773C174.438 260.656 176.437 258.853 178.711 257.451C179.718 256.83 180.774 256.291 181.869 255.839L182.408 255.616C185.578 254.308 188.953 253.567 192.379 253.427L194.313 253.348L199.608 253.666L207.222 254.602L215.222 255.641L210.084 253.178L202.242 249.995L195.058 245.893L191.696 243.641C189.736 242.327 187.997 240.711 186.543 238.852C185.133 237.05 184.009 235.042 183.21 232.898L183.097 232.595C182.37 230.645 181.896 228.611 181.685 226.541L181.317 222.916L181.403 216.379L181.719 212.09L181.896 205.213L177.153 215.246L172.847 222.477C172.223 223.526 171.51 224.52 170.718 225.449C168.341 228.233 165.296 230.369 161.868 231.654L160.896 232.019C158.603 232.879 156.198 233.406 153.754 233.584L150.023 233.855C147.094 234.069 144.152 234.031 141.229 233.743Z" fill="#E6C157"/>
<path d="M29.9899 527.241L19.8752 535.426L25.6099 533.374L33.0819 530.332L40.5551 528.1L45.5917 527.273C47.5558 526.95 49.5545 526.893 51.5337 527.105C53.1347 527.276 54.7226 527.624 56.2487 528.137C58.8523 529.013 61.2905 530.365 63.4073 532.116L64.5575 533.067L64.9269 533.362C68.6127 536.31 71.9229 539.698 74.7832 543.452L78.5531 547.935L76.4903 542.48C75.0313 537.915 73.9347 533.243 73.2106 528.506L73.1586 528.166L72.859 525.737C72.5321 523.087 72.6897 520.399 73.3243 517.804C73.6055 516.655 73.979 515.529 74.4411 514.439L74.669 513.902C76.0073 510.745 77.89 507.848 80.231 505.342L81.5526 503.928L85.5464 500.436L91.6249 495.757L98.0508 490.879L92.6635 492.733L84.8441 495.973L76.8491 498.097L72.8741 498.853C70.5558 499.294 68.1822 499.365 65.8418 499.062C63.5729 498.769 61.3627 498.128 59.2885 497.163L58.995 497.026C57.1089 496.148 55.3428 495.033 53.7397 493.707L50.9314 491.384L46.4034 486.669L43.6164 483.394L38.9141 478.372L42.5815 488.847L44.5925 497.018C44.8843 498.204 45.0751 499.412 45.1629 500.63C45.4259 504.281 44.7571 507.94 43.2192 511.262L42.7831 512.204C41.754 514.427 40.4114 516.491 38.7964 518.333L36.3301 521.146C34.394 523.355 32.2729 525.394 29.9899 527.241Z" fill="#E6C157"/>
<path d="M1278.27 530.742L1265.26 530.475L1270.97 532.605L1278.64 535.098L1285.79 538.212L1290.17 540.827C1291.88 541.847 1293.45 543.092 1294.82 544.53C1295.94 545.693 1296.93 546.984 1297.76 548.36C1299.19 550.708 1300.18 553.314 1300.67 556.017L1300.93 557.486L1301.02 557.95C1301.94 562.579 1302.29 567.304 1302.05 572.017L1302.04 577.875L1303.98 572.375C1305.81 567.945 1307.99 563.667 1310.49 559.58L1310.67 559.286L1312 557.237C1313.46 555 1315.32 553.047 1317.48 551.474C1318.43 550.776 1319.44 550.157 1320.5 549.622L1321.02 549.358C1324.08 547.808 1327.39 546.808 1330.79 546.403L1332.71 546.174L1338.02 546.081L1345.68 546.424L1353.74 546.84L1348.42 544.783L1340.36 542.217L1332.88 538.684L1329.35 536.699C1327.3 535.541 1325.44 534.064 1323.84 532.324C1322.3 530.636 1321.02 528.721 1320.06 526.646L1319.92 526.352C1319.05 524.465 1318.42 522.474 1318.05 520.427L1317.4 516.841L1316.98 510.317L1316.96 506.016L1316.6 499.146L1312.65 509.517L1308.92 517.059C1308.38 518.153 1307.74 519.2 1307.03 520.187C1304.87 523.148 1302 525.512 1298.68 527.06L1297.74 527.499C1295.52 528.534 1293.17 529.246 1290.74 529.612L1287.05 530.172C1284.14 530.611 1281.21 530.802 1278.27 530.742Z" fill="#E6C157"/>
<path d="M802.024 252.881L789.141 251.061L794.551 253.857L801.871 257.25L808.598 261.196L812.637 264.317C814.212 265.534 815.616 266.958 816.811 268.55C817.777 269.838 818.605 271.237 819.27 272.703C820.404 275.205 821.077 277.911 821.239 280.653L821.327 282.143L821.363 282.614C821.719 287.32 821.497 292.052 820.7 296.704L819.99 302.518L822.576 297.29C824.92 293.111 827.591 289.123 830.563 285.364L830.776 285.094L832.349 283.219C834.065 281.173 836.139 279.456 838.47 278.152C839.503 277.574 840.581 277.08 841.693 276.675L842.242 276.475C845.464 275.302 848.867 274.704 852.296 274.709L854.232 274.712L859.509 275.254L867.076 276.51L875.025 277.887L869.996 275.209L862.295 271.697L855.291 267.296L852.028 264.903C850.125 263.508 848.455 261.819 847.081 259.9C845.749 258.04 844.711 255.987 844.003 253.811L843.903 253.503C843.26 251.525 842.872 249.472 842.749 247.396L842.534 243.758L842.897 237.231L843.393 232.959L843.861 226.095L838.698 235.919L834.091 242.961C833.422 243.982 832.668 244.946 831.837 245.84C829.345 248.522 826.212 250.527 822.733 251.666L821.747 251.989C819.419 252.752 816.994 253.177 814.545 253.251L810.805 253.365C807.87 253.454 804.932 253.292 802.024 252.881Z" fill="#E6C157"/>
<path d="M350.508 653.539L338.11 657.489L344.199 657.661L352.265 657.542L360.039 658.178L365.032 659.237C366.979 659.65 368.862 660.324 370.629 661.24C372.058 661.981 373.411 662.883 374.646 663.915C376.754 665.677 378.534 667.823 379.87 670.223L380.596 671.527L380.833 671.936C383.196 676.021 385.048 680.381 386.349 684.918L388.233 690.464L388.293 684.632C388.592 679.849 389.268 675.098 390.315 670.422L390.39 670.086L390.993 667.714C391.652 665.126 392.775 662.679 394.309 660.493C394.989 659.523 395.746 658.611 396.572 657.763L396.98 657.345C399.374 654.89 402.18 652.875 405.272 651.392L407.017 650.554L412.006 648.752L419.37 646.601L427.129 644.392L421.436 644.162L412.974 644.339L404.754 643.413L400.775 642.673C398.455 642.242 396.218 641.445 394.148 640.312C392.141 639.215 390.314 637.815 388.733 636.162L388.509 635.928C387.071 634.425 385.831 632.744 384.819 630.926L383.046 627.742L380.541 621.704L379.135 617.639L376.578 611.253L376.189 622.344L375.094 630.687C374.935 631.898 374.673 633.093 374.313 634.259C373.231 637.757 371.279 640.922 368.639 643.459L367.89 644.178C366.124 645.875 364.123 647.31 361.949 648.44L358.629 650.164C356.023 651.518 353.306 652.647 350.508 653.539Z" fill="#E6C157"/>
<path d="M106.53 703.564L94.786 697.962L99.1082 702.254L105.072 707.686L110.306 713.469L113.223 717.658C114.36 719.291 115.272 721.07 115.934 722.948C116.469 724.466 116.839 726.049 117.033 727.648C117.365 730.374 117.195 733.157 116.527 735.822L116.164 737.27L116.056 737.73C114.984 742.326 113.352 746.773 111.197 750.972L108.775 756.305L112.81 752.093C116.3 748.81 120.045 745.808 124.007 743.114L124.292 742.92L126.355 741.604C128.606 740.167 131.1 739.151 133.714 738.606C134.873 738.365 136.049 738.217 137.232 738.164L137.815 738.138C141.241 737.986 144.666 738.437 147.936 739.47L149.782 740.054L154.653 742.154L161.495 745.623L168.665 749.321L164.671 745.258L158.379 739.597L153.018 733.297L150.623 730.036C149.226 728.134 148.14 726.022 147.405 723.779C146.692 721.605 146.318 719.335 146.296 717.047L146.293 716.723C146.272 714.643 146.518 712.569 147.024 710.551L147.91 707.016L150.215 700.898L151.97 696.972L154.476 690.565L146.603 698.388L140.095 703.722C139.151 704.497 138.143 705.189 137.082 705.793C133.9 707.603 130.31 708.576 126.649 708.619L125.611 708.631C123.162 708.66 120.721 708.338 118.363 707.674L114.761 706.66C111.934 705.864 109.18 704.829 106.53 703.564Z" fill="#E6C157"/>
</svg>
