<svg width="523" height="182" viewBox="0 0 523 182" fill="none" xmlns="http://www.w3.org/2000/svg">
<path d="M136.868 150.868C136.872 163.202 129.971 181.142 101.362 181.142C74.626 181.142 61.3426 157.708 61.7684 145.992C57.7948 159.271 39.2041 175.177 10.0408 145.992C-11.8848 124.049 5.95421 107.57 26.7446 109.416C16.101 106.575 -8.70793 92.9959 5.35769 73.9871C18.2836 56.5186 34.1662 68.6613 46.2288 80.5911C42.3972 73.419 31.9404 47.1724 52.8278 34.3633C71.9339 22.6466 91.1634 39.9973 101.163 56.5186C98.7502 45.654 97.7014 24.2259 116.902 22.6466C128.25 21.7131 134.076 40.9463 136.031 53.2182C134.838 40.0018 139.743 18.6426 157.89 18.1729C175.848 17.7082 183.694 39.0386 187.424 52.6842C184.638 38.3917 189.519 15.8225 206.156 14.4221C224.378 12.8883 230.504 41.6064 235.684 56.5186C234.406 45.2279 238.216 18.1729 251.153 18.1729C271.467 18.1729 270.216 34.3167 270.655 48.0019C271.388 41.272 275.74 34.3633 288.901 34.3633C303.679 34.3633 311.201 49.9407 314.378 63.1523C314.269 55.9943 316.622 48.9663 325.302 48.6364C335.672 48.2423 342.071 56.5989 345.239 63.7347C342.11 53.5634 339.694 39.671 346.589 37.5588C366.299 31.5206 369.508 49.1335 375.752 56.5186C368.373 44.5178 358.042 18.3433 375.752 9.65166C393.463 0.959983 401.723 17.3918 403.638 26.6942C404.064 18.457 409.471 1.59907 427.693 0.0652465C445.915 -1.46858 455.579 24.4218 458.133 37.5588C457.069 31.0968 458.304 18.1729 471.757 18.1729C485.21 18.1729 488.574 38.4819 488.574 48.6364C489.922 39.9731 495.343 22.6466 506.242 22.6466C519.866 22.6466 531.041 73.3084 515.35 80.9562C505.133 85.9363 532.288 113.454 506.242 130.44C493.222 138.932 475.286 131.931 474.913 124.871C474.413 132.112 469.133 145.957 451.109 149.4C432.376 152.979 427.693 138.252 427.693 130.44C426.345 137.399 419.646 151.701 403.638 153.235C387.631 154.769 373.269 134.417 368.089 124.049C368.018 131.364 354.907 144.99 337.878 144.99C320.848 144.99 313.098 131.364 306.995 124.049C304.796 135.056 291.967 156.302 275.959 153.235C259.951 150.167 249.165 132.5 243.56 124.049C245.901 135.34 245.263 158.688 223.976 161.756C202.689 164.824 191.407 142.157 188.426 130.44C190.981 144.642 190.129 173.473 166.288 175.177C145.779 176.643 138.502 161.715 136.868 150.868Z" fill="#EEB1D2"/>
</svg>
