<svg width="523" height="182" viewBox="0 0 523 182" fill="none" xmlns="http://www.w3.org/2000/svg">
<path d="M136.868 151.093C136.872 163.428 129.971 181.367 101.362 181.367C74.626 181.367 61.3426 157.933 61.7684 146.217C57.7948 159.496 39.2041 175.402 10.0408 146.217C-11.8848 124.275 5.95421 107.795 26.7446 109.641C16.101 106.801 -8.70793 93.221 5.35769 74.2122C18.2836 56.7437 34.1662 68.8864 46.2288 80.8162C42.3972 73.6441 31.9404 47.3975 52.8278 34.5884C71.9339 22.8717 91.1634 40.2224 101.163 56.7437C98.7502 45.8791 97.7014 24.451 116.902 22.8717C128.25 21.9382 134.076 41.1714 136.031 53.4433C134.838 40.2269 139.743 18.8677 157.89 18.398C175.848 17.9333 183.694 39.2637 187.424 52.9093C184.638 38.6168 189.519 16.0476 206.156 14.6472C224.378 13.1134 230.504 41.8315 235.684 56.7437C234.406 45.453 238.216 18.398 251.153 18.398C271.467 18.398 270.216 34.5418 270.655 48.227C271.388 41.4971 275.74 34.5884 288.901 34.5884C303.679 34.5884 311.201 50.1658 314.378 63.3774C314.269 56.2194 316.622 49.1914 325.302 48.8615C335.672 48.4674 342.071 56.824 345.239 63.9598C342.11 53.7885 339.694 39.8961 346.589 37.7839C366.299 31.7457 369.508 49.3586 375.752 56.7437C368.373 44.7429 358.042 18.5684 375.752 9.87676C393.463 1.18508 401.723 17.6169 403.638 26.9193C404.064 18.6821 409.471 1.82417 427.693 0.290344C445.915 -1.24348 455.579 24.6469 458.133 37.7839C457.069 31.3219 458.304 18.398 471.757 18.398C485.21 18.398 488.574 38.707 488.574 48.8615C489.922 40.1982 495.343 22.8717 506.242 22.8717C519.866 22.8717 531.041 73.5335 515.35 81.1813C505.133 86.1614 532.288 113.679 506.242 130.665C493.222 139.157 475.286 132.156 474.913 125.096C474.413 132.338 469.133 146.182 451.109 149.625C432.376 153.204 427.693 138.477 427.693 130.665C426.345 137.625 419.646 151.926 403.638 153.46C387.631 154.994 373.269 134.642 368.089 124.275C368.018 131.589 354.907 145.215 337.878 145.215C320.848 145.215 313.098 131.589 306.995 124.275C304.796 135.281 291.967 156.527 275.959 153.46C259.951 150.392 249.165 132.725 243.56 124.275C245.901 135.565 245.263 158.913 223.976 161.981C202.689 165.049 191.407 142.382 188.426 130.665C190.981 144.868 190.129 173.698 166.288 175.402C145.779 176.868 138.502 161.94 136.868 151.093Z" fill="#90C4D9"/>
</svg>
