<svg width="1439" height="281" viewBox="0 0 1439 281" fill="none" xmlns="http://www.w3.org/2000/svg">
<path d="M61.2509 115.432L28.9109 115.432C21.8709 115.432 17.9856 118.58 18.802 123.573C19.6006 128.459 23.9652 131.607 30.1252 131.607C18.153 131.715 11.5249 136.926 12.8559 145.068C14.3466 154.187 21.2272 159.941 30.6872 159.941C15.7272 159.941 7.45982 166.563 9.1813 177.093C10.7785 186.863 18.0601 193.051 28.1801 193.051C39.1801 193.051 45.0982 180.133 43.504 159.615L48.674 159.615L53.8739 191.423L73.6739 191.423L61.2509 115.432ZM40.5505 132.801C41.3203 129.436 44.3186 127.59 47.3383 128.567C50.5958 129.653 52.2814 133.235 51.7316 136.601C50.9795 140.074 47.889 142.029 44.8515 140.943C41.704 139.857 39.9084 136.275 40.5505 132.801Z" fill="#3764E5"/>
<path d="M119.471 166.497H139.271L129 90.1854H85.2202C77.4102 90.1854 72.9297 93.674 73.6926 99.3429C74.5583 105.775 79.3912 109.808 86.2112 109.808C76.6558 109.918 71.2074 114.387 72.1464 121.364C73.3055 129.977 80.0744 135.319 89.6444 135.319C77.6544 135.319 70.9007 141.532 72.2505 151.562C73.615 161.701 81.1906 168.133 91.7506 168.133C104.511 168.133 110.34 151.78 106.833 125.725C106.07 120.056 104.684 113.842 103.261 109.808H111.841L119.471 166.497Z" fill="#3764E5"/>
<path d="M163.507 149.727C176.707 149.727 183.498 133.633 181.011 108.124C180.392 101.775 179.287 96.0815 177.597 91.1548L196.187 91.1548L194.266 71.4483L131.126 71.4483L133.047 91.1548L162.307 91.1548C152.638 91.2643 146.947 96.0815 147.673 103.526C148.484 111.847 154.056 117.102 161.976 117.102C148.886 117.102 141.323 123.014 142.23 132.32C143.276 143.049 151.517 149.727 163.507 149.727Z" fill="#3764E5"/>
<path d="M221.644 137.156H265.094L264.102 117.381H235.612C236.299 113.536 236.59 108.372 236.65 102.989C237.789 105.956 239.885 108.263 242.8 109.361C248.394 111.229 254.806 107.494 256.786 100.902C258.76 94.2003 256.108 87.3889 250.388 85.1916C244.794 83.324 238.486 86.9494 236.391 93.4313L236.397 93.5411C235.923 88.4875 235.235 83.5437 234.289 80.0281H262.229L261.238 60.2529H215.808C208.548 60.2529 204.214 63.7685 204.489 69.2616C204.825 75.9632 209.77 80.2478 217.25 80.2478C206.806 80.3577 200.569 85.4113 200.971 93.4313C201.423 102.44 208.414 108.043 219.194 108.043C207.534 108.043 200.544 113.426 200.968 121.886C201.436 131.224 209.434 137.156 221.644 137.156Z" fill="#3764E5"/>
<path d="M285.232 136.899C295.572 136.899 302.704 127.22 304.616 111.16L314.287 135.249L339.587 135.249L320.946 94.331L338.778 58.2527L313.478 58.2527L303.47 81.2416C300.758 65.6223 294.355 56.4927 285.665 56.4927C279.065 56.4927 274.848 60.3426 274.791 66.3923C274.728 72.992 279.749 77.1718 287.779 77.1718C277.767 77.2818 271.448 82.4516 271.37 90.7012C271.286 99.6108 277.942 105.221 288.612 105.221C276.622 105.221 268.973 111.49 268.879 121.39C268.788 130.959 275.112 136.899 285.232 136.899Z" fill="#3764E5"/>
<path d="M406.589 64.0747L374.249 64.0747C367.209 64.0747 362.662 67.2614 362.429 72.316C362.201 77.2607 365.904 80.4473 372.064 80.4473C360.069 80.5572 352.346 85.8316 351.966 94.0729C351.54 103.303 357.212 109.127 366.672 109.127C351.712 109.127 342.053 115.83 341.561 126.488C341.105 136.378 347.086 142.641 357.206 142.641C368.206 142.641 376.839 129.565 379.557 108.797L384.727 108.797L383.242 140.993L403.042 140.993L406.589 64.0747ZM382.238 81.6561C383.715 78.2497 387.102 76.3817 389.916 77.3706C392.945 78.4694 393.878 82.0956 392.621 85.502C391.139 89.0182 387.638 90.9961 384.828 89.8973C381.909 88.7985 380.866 85.1723 382.238 81.6561Z" fill="#3764E5"/>
<path d="M481.125 84.3345L478.838 112.843C480.333 94.2028 472.136 82.5802 457.506 82.5802C447.496 82.5802 440.856 87.1854 440.258 94.6414C439.246 107.251 452.108 110.102 461.418 106.483C454.022 109.553 449.098 114.707 448.694 119.751C448.192 126.001 452.667 131.922 460.213 135.211C449.996 130.935 434.328 132.908 433.264 146.176C432.445 156.373 440.625 162.733 454.375 162.733C466.915 162.733 475.768 151.11 477.254 132.58L474.967 161.088L494.767 161.088L497.054 132.58C495.568 151.11 502.555 162.733 515.095 162.733C528.845 162.733 538.045 156.373 538.864 146.176C539.928 132.908 524.576 130.935 513.673 135.211C521.747 131.922 527.172 126.001 527.674 119.751C528.078 114.707 523.982 109.553 517.078 106.483C525.808 110.102 539.126 107.251 540.138 94.6414C540.736 87.1854 534.836 82.5802 524.826 82.5802C510.196 82.5802 500.133 94.2028 498.638 112.843L500.925 84.3345L481.125 84.3345Z" fill="#3764E5"/>
<path d="M556.538 180.969H599.988L601.915 161.263H573.425C574.679 157.432 575.732 152.286 576.587 146.922C577.288 149.878 579.043 152.177 581.796 153.271C587.114 155.133 594.078 151.41 597.03 144.842C599.993 138.163 598.347 131.376 592.951 129.186C587.633 127.325 580.789 130.938 577.738 137.397L577.727 137.507C578 132.471 578.041 127.544 577.614 124.041H605.554L607.48 104.335H562.05C554.79 104.335 549.938 107.838 549.403 113.312C548.75 119.99 553.062 124.26 560.542 124.26C550.082 124.369 543.099 129.405 542.318 137.397C541.44 146.374 547.605 151.958 558.385 151.958C546.725 151.958 538.94 157.322 538.116 165.752C537.206 175.058 544.328 180.969 556.538 180.969Z" fill="#3764E5"/>
<path d="M617.662 200.553C633.832 200.553 646.307 180.327 649.876 148.185L644.244 198.913L664.044 198.913L672.541 122.383L644.601 122.383C636.791 122.383 631.575 125.772 630.968 131.239C630.349 136.814 633.994 140.641 640.313 141.188C628.97 140.313 621.432 143.811 618.87 150.043C615.417 158.352 621.328 167.536 628.161 168.41C613.529 166.442 603.634 172.346 602.395 183.498C601.23 193.993 607.102 200.553 617.662 200.553Z" fill="#3764E5"/>
<path d="M733.941 142.45L701.601 142.45C694.561 142.45 689.834 145.623 689.316 150.657C688.809 155.581 692.332 158.754 698.492 158.754C686.491 158.863 678.47 164.115 677.625 172.322C676.678 181.513 682.021 187.313 691.481 187.313C676.521 187.313 666.484 193.987 665.391 204.601C664.377 214.449 670.004 220.686 680.124 220.686C691.124 220.686 700.495 207.665 704.385 186.984L709.555 186.984L706.254 219.045L726.054 219.045L733.941 142.45ZM708.598 159.957C710.268 156.565 713.759 154.705 716.518 155.69C719.485 156.784 720.213 160.395 718.764 163.787C717.083 167.289 713.47 169.258 710.723 168.164C707.866 167.07 707.028 163.459 708.598 159.957Z" fill="#3764E5"/>
<path d="M773.855 234.933L793.655 234.933L799.081 158.124L779.281 158.124L777.359 185.336L769.769 185.336C769.39 167.341 763.015 156.369 752.345 156.369C745.745 156.369 741.294 160.209 740.867 166.244C740.433 172.389 744.869 176.558 752.318 176.997C741.86 177.107 735.029 181.935 734.502 189.396C733.92 197.626 740.291 203.99 750.939 205.855C738.664 203.661 730.349 209.257 729.581 220.12C728.868 230.214 735.019 236.579 745.469 236.579C756.469 236.579 764.896 224.728 768.263 205.087L775.963 205.087L773.855 234.933Z" fill="#3764E5"/>
<path d="M866.706 167.273H848.446L827.511 203.332C832.712 180.136 828.487 165.514 816.497 165.514C808.027 165.514 802.481 170.022 802.234 177.167C801.968 184.863 807.408 189.81 816.424 189.92C806.968 189.81 800.849 194.977 800.561 203.332C800.245 212.456 805.988 218.173 815.444 218.283C805.218 218.173 798.663 223.23 798.386 231.255C798.075 240.27 803.927 245.986 813.497 245.986C821.527 245.986 833.848 233.234 845.33 212.896L844.248 244.227H864.048L866.706 167.273Z" fill="#3764E5"/>
<path d="M934.456 170.678L916.196 170.678L896.915 206.756C901.052 183.548 896.156 168.918 884.166 168.918C875.696 168.918 870.358 173.428 870.439 180.578C870.526 188.277 876.192 193.227 885.213 193.337C875.752 193.227 869.871 198.397 869.965 206.756C870.069 215.885 876.074 221.605 885.535 221.715C875.304 221.605 868.981 226.665 869.072 234.694C869.174 243.714 875.289 249.433 884.859 249.433C892.889 249.433 904.624 236.674 915.174 216.325L915.529 247.673L935.329 247.673L934.456 170.678ZM885.678 156.709C885.497 150.44 889.302 146.48 895.462 146.48C901.842 146.48 905.962 150.88 906.043 158.029C905.962 150.88 909.762 146.48 916.032 146.48C921.642 146.48 925.207 150.44 925.278 156.709C925.363 164.189 918.046 168.918 906.276 168.918C894.066 168.918 886.093 164.189 885.678 156.709Z" fill="#3764E5"/>
<path d="M986.598 233.154C1002.66 233.154 1007.23 214.885 997.183 182.065L1015.8 231.513L1036.26 231.513L1044.48 182.065C1043.64 214.885 1052.49 233.154 1066.9 233.154C1077.9 233.154 1084.17 226.919 1083.14 217.073C1082.32 209.305 1073.68 204.492 1060.59 204.492C1070.16 204.492 1075.57 199.46 1074.74 191.583C1073.95 184.034 1066.09 179.33 1054.43 179.33C1062.46 179.33 1067.06 174.954 1066.31 167.843C1065.37 158.873 1057.73 153.184 1046.4 153.184C1028.82 153.403 1019.55 169.813 1022.27 195.74C1019.55 169.813 1006.82 153.403 989.199 153.184C977.869 153.184 971.427 158.873 972.369 167.843C973.116 174.954 978.635 179.33 986.665 179.33C975.005 179.33 968.129 184.034 968.922 191.583C969.749 199.46 976.218 204.492 985.788 204.492C972.698 204.492 965.063 209.305 965.879 217.073C966.913 226.919 974.938 233.154 986.598 233.154Z" fill="#3764E5"/>
<path d="M1130.77 127.493H1098.43C1091.39 127.493 1087.43 130.653 1088.12 135.665C1088.8 140.569 1093.08 143.729 1099.24 143.729C1087.27 143.838 1080.51 149.068 1081.64 157.24C1082.9 166.394 1089.64 172.169 1099.1 172.169C1084.14 172.169 1075.71 178.816 1077.17 189.385C1078.52 199.192 1085.65 205.403 1095.77 205.403C1106.77 205.403 1113.01 192.436 1111.93 171.842H1117.1L1121.5 203.769H1141.3L1130.77 127.493ZM1109.64 144.927C1110.49 141.549 1113.54 139.697 1116.53 140.678C1119.76 141.767 1121.36 145.363 1120.73 148.741C1119.89 152.228 1116.75 154.189 1113.74 153.1C1110.62 152.01 1108.91 148.414 1109.64 144.927Z" fill="#3764E5"/>
<path d="M1173.84 181.41C1188.14 181.41 1196.08 174.342 1194.34 163.035C1193.93 160.317 1192.65 157.707 1190.66 155.533C1196.29 157.055 1202.1 153.358 1203.33 147.052C1204.62 140.42 1201.28 133.679 1195.33 131.504C1189.55 129.656 1183.61 133.244 1182.17 139.659C1181.38 143.79 1182.36 148.031 1184.71 151.184C1183.88 150.749 1183.07 150.531 1182.25 150.205C1176.01 148.248 1168.37 149.335 1162.57 153.141C1167.07 150.205 1169.41 144.66 1168.53 138.898C1167.78 134.005 1163.02 128.786 1156.12 125.416C1163.25 128.895 1171.45 129.982 1177.23 128.242C1183.73 126.177 1187.34 121.719 1186.54 116.5C1185.14 107.367 1177.23 101.713 1165.9 101.713C1144.23 101.713 1132.97 116.5 1136.57 139.985C1140.48 165.427 1154.81 181.41 1173.84 181.41Z" fill="#3764E5"/>
<path d="M1227.31 158.398C1241.28 158.398 1247.28 142.118 1243 116.18C1239.23 93.3888 1230.16 79.063 1219.49 79.063C1212.01 79.063 1208.02 82.8615 1209 88.8306C1210.17 95.885 1215.52 100.335 1223 100.335C1212.57 100.443 1206.87 105.218 1208.11 112.707C1209.67 122.149 1216.68 128.01 1226.25 128.01C1214.04 128.01 1207.24 133.436 1208.67 142.118C1210.32 152.103 1217.52 158.398 1227.31 158.398Z" fill="#3764E5"/>
<path d="M1278.73 138.85C1293.03 138.85 1301 131.779 1299.31 120.464C1298.46 114.807 1293.86 109.803 1287.27 107.627C1281.04 105.669 1273.39 106.757 1267.58 110.564C1272.09 107.627 1274.45 102.079 1273.59 96.3126C1272.86 91.4169 1268.12 86.1949 1261.23 82.8223C1268.35 86.3037 1276.55 87.3916 1282.34 85.6509C1288.85 83.5839 1292.47 79.1234 1291.69 73.9014C1290.32 64.7628 1282.44 59.1056 1271.11 59.1056C1249.44 59.1056 1238.12 73.9014 1241.63 97.4005C1245.43 122.858 1259.7 138.85 1278.73 138.85Z" fill="#3764E5"/>
<path d="M1366.34 75.1192C1363.76 51.7206 1353.79 37.0691 1340.59 37.0691C1332.34 37.0691 1327.81 42.8641 1328.82 52.0486C1330.03 63.0919 1338.5 70.0896 1350.71 70.0896C1342.46 70.0896 1337.51 70.0896 1334.58 73.3698C1331.24 77.0873 1330.77 85.7251 1332.04 97.315C1330.69 85.069 1329.7 77.0873 1324.79 73.3698C1320.46 70.0896 1315.84 70.0896 1308.14 70.0896C1320.46 70.0896 1327.5 63.0919 1326.29 52.0486C1325.28 42.8641 1319.47 37.0691 1311.33 37.0691C1298.68 37.0691 1292.15 51.7206 1294.4 75.1192C1297.01 100.814 1312.32 116.996 1334.23 117.215C1356.82 117.543 1369.23 101.361 1366.34 75.1192Z" fill="#3764E5"/>
<path d="M1432.8 79.6402C1432.19 64.1423 1422.78 54.36 1408.48 54.36C1400.56 54.36 1395.89 55.8988 1391.59 58.4268C1395.67 56.0087 1398.61 52.4914 1399.15 49.3039C1399.7 46.5561 1398.68 42.9289 1396.57 39.8513C1400.64 45.347 1406.77 50.0733 1412.38 50.0733C1420.85 50.0733 1425.05 45.1272 1423.31 37.2134C1421.7 29.8492 1412.5 25.2328 1399.52 25.2328C1382.47 25.2328 1372.14 34.0259 1372.7 47.985C1373.25 61.944 1380.19 70.6272 1390.64 70.6272C1397.57 70.6272 1404.02 66.7802 1410.03 62.9332C1404.88 66.3406 1401.92 69.1983 1400.96 72.9354C1400.11 76.3427 1400.4 80.9591 1403.47 86.1251C1399.22 78.9807 1391.9 74.5841 1386.73 74.5841C1378.59 74.5841 1373.63 79.86 1373.96 88.2134C1374.38 98.985 1384.33 105.69 1399.84 105.69C1420.74 105.69 1433.43 95.6876 1432.8 79.6402Z" fill="#3764E5"/>
</svg>
