<svg width="1446" height="290" viewBox="0 0 1446 290" fill="none" xmlns="http://www.w3.org/2000/svg">
<path d="M68.2509 125.195L35.9109 125.195C28.8709 125.195 24.9856 128.343 25.802 133.337C26.6006 138.222 30.9652 141.37 37.1252 141.37C25.153 141.479 18.5249 146.69 19.8559 154.832C21.3466 163.951 28.2272 169.704 37.6872 169.704C22.7272 169.704 14.4598 176.326 16.1813 186.856C17.7785 196.627 25.0601 202.815 35.1801 202.815C46.1801 202.815 52.0982 189.896 50.504 169.378L55.674 169.378L60.8739 201.186L80.6739 201.186L68.2509 125.195ZM47.5505 142.564C48.3203 139.199 51.3186 137.354 54.3383 138.331C57.5958 139.416 59.2814 142.999 58.7316 146.364C57.9795 149.838 54.889 151.792 51.8515 150.706C48.704 149.621 46.9084 146.038 47.5505 142.564Z" fill="#F97755"/>
<path d="M126.471 176.261H146.271L136 99.9488H92.2202C84.4102 99.9488 79.9297 103.437 80.6926 109.106C81.5583 115.538 86.3912 119.572 93.2112 119.572C83.6558 119.681 78.2074 124.151 79.1464 131.128C80.3055 139.74 87.0744 145.082 96.6444 145.082C84.6544 145.082 77.9007 151.296 79.2505 161.325C80.615 171.464 88.1906 177.896 98.7506 177.896C111.511 177.896 117.34 161.544 113.833 135.488C113.07 129.82 111.684 123.606 110.261 119.572H118.841L126.471 176.261Z" fill="#F97755"/>
<path d="M170.507 159.491C183.707 159.491 190.498 143.397 188.011 117.888C187.392 111.538 186.287 105.845 184.597 100.918L203.187 100.918L201.266 81.2117L138.126 81.2117L140.047 100.918L169.307 100.918C159.638 101.028 153.947 105.845 154.673 113.29C155.484 121.61 161.056 126.865 168.976 126.865C155.886 126.865 148.323 132.777 149.23 142.083C150.276 152.812 158.517 159.491 170.507 159.491Z" fill="#F97755"/>
<path d="M228.644 146.92H272.094L271.102 127.145H242.612C243.299 123.299 243.59 118.136 243.65 112.753C244.789 115.719 246.885 118.026 249.8 119.125C255.394 120.992 261.806 117.257 263.786 110.665C265.76 103.964 263.108 97.1523 257.388 94.955C251.794 93.0874 245.486 96.7128 243.391 103.195L243.397 103.305C242.923 98.2509 242.235 93.3071 241.289 89.7915H269.229L268.238 70.0163H222.808C215.548 70.0163 211.214 73.5319 211.489 79.025C211.825 85.7266 216.77 90.0112 224.25 90.0112C213.806 90.1211 207.569 95.1747 207.971 103.195C208.423 112.203 215.414 117.806 226.194 117.806C214.534 117.806 207.544 123.19 207.968 131.649C208.436 140.987 216.434 146.92 228.644 146.92Z" fill="#F97755"/>
<path d="M292.232 146.663C302.572 146.663 309.704 136.983 311.616 120.924L321.287 145.013L346.587 145.013L327.946 104.094L345.778 68.0161L320.478 68.0161L310.47 91.0051C307.758 75.3858 301.355 66.2562 292.665 66.2562C286.065 66.2562 281.848 70.106 281.791 76.1557C281.728 82.7554 286.749 86.9353 294.779 86.9353C284.767 87.0452 278.448 92.215 278.37 100.465C278.286 109.374 284.942 114.984 295.612 114.984C283.622 114.984 275.973 121.254 275.879 131.153C275.788 140.723 282.112 146.663 292.232 146.663Z" fill="#F97755"/>
<path d="M413.589 73.8382L381.249 73.8382C374.209 73.8382 369.662 77.0248 369.429 82.0794C369.201 87.0242 372.904 90.2108 379.064 90.2108C367.069 90.3207 359.346 95.5951 358.966 103.836C358.54 113.066 364.212 118.89 373.672 118.89C358.712 118.89 349.053 125.593 348.561 136.252C348.105 146.141 354.086 152.405 364.206 152.405C375.206 152.405 383.839 139.329 386.557 118.561L391.727 118.561L390.242 150.756L410.042 150.756L413.589 73.8382ZM389.238 91.4195C390.715 88.0131 394.102 86.1451 396.916 87.134C399.945 88.2329 400.878 91.859 399.621 95.2654C398.139 98.7817 394.638 100.76 391.828 99.6607C388.909 98.5619 387.866 94.9358 389.238 91.4195Z" fill="#F97755"/>
<path d="M488.125 94.0979L485.838 122.606C487.333 103.966 479.136 92.3436 464.506 92.3436C454.496 92.3436 447.856 96.9488 447.258 104.405C446.246 117.014 459.108 119.865 468.418 116.247C461.022 119.317 456.098 124.47 455.694 129.514C455.192 135.764 459.667 141.685 467.213 144.974C456.996 140.698 441.328 142.672 440.264 155.939C439.445 166.136 447.625 172.496 461.375 172.496C473.915 172.496 482.768 160.873 484.254 142.343L481.967 170.851L501.767 170.851L504.054 142.343C502.568 160.873 509.555 172.496 522.095 172.496C535.845 172.496 545.045 166.136 545.864 155.939C546.928 142.672 531.576 140.698 520.673 144.974C528.747 141.685 534.172 135.764 534.674 129.514C535.078 124.47 530.982 119.317 524.078 116.247C532.808 119.865 546.126 117.014 547.138 104.405C547.736 96.9488 541.836 92.3436 531.826 92.3436C517.196 92.3436 507.133 103.966 505.638 122.606L507.925 94.0979L488.125 94.0979Z" fill="#F97755"/>
<path d="M563.538 190.733H606.988L608.915 171.027H580.425C581.679 167.195 582.732 162.05 583.587 156.685C584.288 159.641 586.043 161.94 588.796 163.035C594.114 164.896 601.078 161.174 604.03 154.605C606.993 147.927 605.347 141.139 599.951 138.95C594.633 137.089 587.789 140.701 584.738 147.161L584.727 147.27C585 142.234 585.041 137.308 584.614 133.804H612.554L614.48 114.098H569.05C561.79 114.098 556.938 117.601 556.403 123.075C555.75 129.754 560.062 134.023 567.542 134.023C557.082 134.133 550.099 139.169 549.318 147.161C548.44 156.138 554.605 161.721 565.385 161.721C553.725 161.721 545.94 167.086 545.116 175.515C544.206 184.821 551.328 190.733 563.538 190.733Z" fill="#F97755"/>
<path d="M624.662 210.316C640.832 210.316 653.307 190.09 656.876 157.948L651.244 208.676L671.044 208.676L679.541 132.146L651.601 132.146C643.791 132.146 638.575 135.536 637.968 141.002C637.349 146.578 640.994 150.404 647.313 150.951C635.97 150.076 628.432 153.575 625.87 159.807C622.417 168.115 628.328 177.299 635.161 178.174C620.529 176.206 610.634 182.109 609.395 193.261C608.23 203.756 614.102 210.316 624.662 210.316Z" fill="#F97755"/>
<path d="M740.941 152.213L708.601 152.213C701.561 152.213 696.834 155.387 696.316 160.42C695.809 165.344 699.332 168.517 705.492 168.517C693.491 168.627 685.47 173.879 684.625 182.085C683.678 191.277 689.021 197.076 698.481 197.076C683.521 197.076 673.484 203.751 672.391 214.365C671.377 224.213 677.004 230.45 687.124 230.45C698.124 230.45 707.495 217.429 711.385 196.748L716.555 196.748L713.254 228.808L733.054 228.808L740.941 152.213ZM715.598 169.721C717.268 166.329 720.759 164.469 723.518 165.453C726.485 166.548 727.213 170.159 725.764 173.551C724.083 177.052 720.47 179.022 717.723 177.927C714.866 176.833 714.028 173.222 715.598 169.721Z" fill="#F97755"/>
<path d="M780.855 244.696L800.655 244.696L806.081 167.888L786.281 167.888L784.359 195.1L776.769 195.1C776.39 177.105 770.015 166.132 759.345 166.132C752.745 166.132 748.294 169.972 747.867 176.007C747.433 182.152 751.869 186.322 759.318 186.761C748.86 186.87 742.029 191.698 741.502 199.16C740.92 207.389 747.291 213.753 757.939 215.619C745.664 213.424 737.349 219.02 736.581 229.883C735.868 239.978 742.019 246.342 752.469 246.342C763.469 246.342 771.896 234.492 775.263 214.851L782.963 214.851L780.855 244.696Z" fill="#F97755"/>
<path d="M873.706 177.037H855.446L834.511 213.095C839.712 189.899 835.487 175.278 823.497 175.278C815.027 175.278 809.481 179.785 809.234 186.931C808.968 194.626 814.408 199.573 823.424 199.683C813.968 199.573 807.849 204.74 807.561 213.095C807.245 222.22 812.988 227.936 822.444 228.046C812.218 227.936 805.663 232.993 805.386 241.019C805.075 250.033 810.927 255.75 820.497 255.75C828.527 255.75 840.848 242.997 852.33 222.659L851.248 253.991H871.048L873.706 177.037Z" fill="#F97755"/>
<path d="M941.456 180.442L923.196 180.442L903.915 216.519C908.052 193.311 903.156 178.682 891.166 178.682C882.696 178.682 877.358 183.192 877.439 190.341C877.526 198.041 883.192 202.99 892.213 203.1C882.752 202.99 876.871 208.16 876.965 216.519C877.069 225.649 883.074 231.369 892.535 231.479C882.304 231.369 875.981 236.428 876.072 244.458C876.174 253.477 882.289 259.197 891.859 259.197C899.889 259.197 911.624 246.438 922.174 226.089L922.529 257.437L942.329 257.437L941.456 180.442ZM892.678 166.473C892.497 160.203 896.302 156.243 902.462 156.243C908.842 156.243 912.962 160.643 913.043 167.793C912.962 160.643 916.762 156.243 923.032 156.243C928.642 156.243 932.207 160.203 932.278 166.473C932.363 173.952 925.046 178.682 913.276 178.682C901.066 178.682 893.093 173.952 892.678 166.473Z" fill="#F97755"/>
<path d="M993.598 242.918C1009.66 242.918 1014.23 224.648 1004.18 191.829L1022.8 241.277L1043.26 241.277L1051.48 191.829C1050.64 224.648 1059.49 242.918 1073.9 242.918C1084.9 242.918 1091.17 236.682 1090.14 226.836C1089.32 219.069 1080.68 214.255 1067.59 214.255C1077.16 214.255 1082.57 209.223 1081.74 201.346C1080.95 193.798 1073.09 189.094 1061.43 189.094C1069.46 189.094 1074.06 184.718 1073.31 177.607C1072.37 168.636 1064.73 162.947 1053.4 162.947C1035.82 163.166 1026.55 179.576 1029.27 205.503C1026.55 179.576 1013.82 163.166 996.199 162.947C984.869 162.947 978.427 168.636 979.369 177.607C980.116 184.718 985.635 189.094 993.665 189.094C982.005 189.094 975.129 193.798 975.922 201.346C976.749 209.223 983.218 214.255 992.788 214.255C979.698 214.255 972.063 219.069 972.879 226.836C973.913 236.682 981.938 242.918 993.598 242.918Z" fill="#F97755"/>
<path d="M1137.77 137.256H1105.43C1098.39 137.256 1094.43 140.416 1095.12 145.429C1095.8 150.332 1100.08 153.492 1106.24 153.492C1094.27 153.601 1087.51 158.831 1088.64 167.004C1089.9 176.157 1096.64 181.932 1106.1 181.932C1091.14 181.932 1082.71 188.579 1084.17 199.149C1085.52 208.956 1092.65 215.167 1102.77 215.167C1113.77 215.167 1120.01 202.2 1118.93 181.605H1124.1L1128.5 213.532H1148.3L1137.77 137.256ZM1116.64 154.691C1117.49 151.313 1120.54 149.46 1123.53 150.441C1126.76 151.531 1128.36 155.127 1127.73 158.505C1126.89 161.991 1123.75 163.953 1120.74 162.863C1117.62 161.773 1115.91 158.178 1116.64 154.691Z" fill="#F97755"/>
<path d="M1180.84 191.173C1195.14 191.173 1203.08 184.106 1201.34 172.798C1200.93 170.08 1199.65 167.471 1197.66 165.296C1203.29 166.818 1209.1 163.122 1210.33 156.816C1211.62 150.183 1208.28 143.442 1202.33 141.268C1196.55 139.419 1190.61 143.007 1189.17 149.422C1188.38 153.554 1189.36 157.794 1191.71 160.947C1190.88 160.512 1190.07 160.295 1189.25 159.969C1183.01 158.012 1175.37 159.099 1169.57 162.904C1174.07 159.969 1176.41 154.424 1175.53 148.661C1174.78 143.768 1170.02 138.55 1163.12 135.179C1170.25 138.658 1178.45 139.746 1184.23 138.006C1190.73 135.94 1194.34 131.482 1193.54 126.263C1192.14 117.13 1184.23 111.477 1172.9 111.477C1151.23 111.477 1139.97 126.263 1143.57 149.748C1147.48 175.19 1161.81 191.173 1180.84 191.173Z" fill="#F97755"/>
<path d="M1234.31 168.161C1248.28 168.161 1254.28 151.882 1250 125.943C1246.23 103.152 1237.16 88.8264 1226.49 88.8264C1219.01 88.8264 1215.02 92.6249 1216 98.594C1217.17 105.648 1222.52 110.098 1230 110.098C1219.57 110.207 1213.87 114.982 1215.11 122.47C1216.67 131.912 1223.68 137.773 1233.25 137.773C1221.04 137.773 1214.24 143.2 1215.67 151.882C1217.32 161.867 1224.52 168.161 1234.31 168.161Z" fill="#F97755"/>
<path d="M1285.73 148.614C1300.03 148.614 1308 141.542 1306.31 130.228C1305.46 124.571 1300.86 119.566 1294.27 117.39C1288.04 115.432 1280.39 116.52 1274.58 120.328C1279.09 117.39 1281.45 111.842 1280.59 106.076C1279.86 101.18 1275.12 95.9583 1268.23 92.5858C1275.35 96.0671 1283.55 97.155 1289.34 95.4144C1295.85 93.3473 1299.47 88.8868 1298.69 83.6648C1297.32 74.5262 1289.44 68.869 1278.11 68.869C1256.44 68.869 1245.12 83.6648 1248.63 107.164C1252.43 132.621 1266.7 148.614 1285.73 148.614Z" fill="#F97755"/>
<path d="M1373.34 84.8826C1370.76 61.484 1360.79 46.8326 1347.59 46.8326C1339.34 46.8326 1334.81 52.6275 1335.82 61.812C1337.03 72.8553 1345.5 79.853 1357.71 79.853C1349.46 79.853 1344.51 79.853 1341.58 83.1332C1338.24 86.8507 1337.77 95.4885 1339.04 107.078C1337.69 94.8325 1336.7 86.8507 1331.79 83.1332C1327.46 79.853 1322.84 79.853 1315.14 79.853C1327.46 79.853 1334.5 72.8553 1333.29 61.812C1332.28 52.6275 1326.47 46.8326 1318.33 46.8326C1305.68 46.8326 1299.15 61.484 1301.4 84.8826C1304.01 110.577 1319.32 126.76 1341.23 126.978C1363.82 127.306 1376.23 111.124 1373.34 84.8826Z" fill="#F97755"/>
<path d="M1439.8 89.4036C1439.19 73.9057 1429.78 64.1234 1415.48 64.1234C1407.56 64.1234 1402.89 65.6622 1398.59 68.1902C1402.67 65.7721 1405.61 62.2548 1406.15 59.0673C1406.7 56.3195 1405.68 52.6923 1403.57 49.6147C1407.64 55.1104 1413.77 59.8367 1419.38 59.8367C1427.85 59.8367 1432.05 54.8906 1430.31 46.9768C1428.7 39.6126 1419.5 34.9962 1406.52 34.9962C1389.47 34.9962 1379.14 43.7893 1379.7 57.7484C1380.25 71.7074 1387.19 80.3906 1397.64 80.3906C1404.57 80.3906 1411.02 76.5437 1417.03 72.6967C1411.88 76.104 1408.92 78.9618 1407.96 82.6988C1407.11 86.1062 1407.4 90.7226 1410.47 95.8885C1406.22 88.7441 1398.9 84.3475 1393.73 84.3475C1385.59 84.3475 1380.63 89.6234 1380.96 97.9769C1381.38 108.748 1391.33 115.453 1406.84 115.453C1427.74 115.453 1440.43 105.451 1439.8 89.4036Z" fill="#F97755"/>
</svg>
